<svg width="38" height="38" viewBox="0 0 38 38" fill="none" xmlns="http://www.w3.org/2000/svg">
<g id="Group 31">
<rect id="Rectangle 18" width="38" height="38" rx="19" fill="#E9C46A"/>
<path id="Vector" d="M28.2639 17.4414H21.6257V10.8C21.6257 9.98501 20.9651 9.3241 20.1506 9.3241H18.6754C17.8609 9.3241 17.2003 9.98501 17.2003 10.8V17.4414H10.5621C9.74751 17.4414 9.08691 18.1023 9.08691 18.9172V20.3931C9.08691 21.2081 9.74751 21.869 10.5621 21.869H17.2003V28.5104C17.2003 29.3254 17.8609 29.9863 18.6754 29.9863H20.1506C20.9651 29.9863 21.6257 29.3254 21.6257 28.5104V21.869H28.2639C29.0785 21.869 29.7391 21.2081 29.7391 20.3931V18.9172C29.7391 18.1023 29.0785 17.4414 28.2639 17.4414Z" fill="white"/>
</g>
</svg>
