<svg width="41" height="40" viewBox="0 0 41 40" fill="none" xmlns="http://www.w3.org/2000/svg">
<path id="Vector" d="M36.6071 0H4.39286C3.2278 0 2.11046 0.451529 1.28664 1.25526C0.462818 2.05898 0 3.14907 0 4.28571L0 35.7143C0 36.8509 0.462818 37.941 1.28664 38.7447C2.11046 39.5485 3.2278 40 4.39286 40H16.9537V26.4009H11.1881V20H16.9537V15.1214C16.9537 9.57232 20.3398 6.50714 25.5262 6.50714C28.01 6.50714 30.6072 6.93929 30.6072 6.93929V12.3857H27.7455C24.9258 12.3857 24.0463 14.0929 24.0463 15.8438V20H30.3409L29.3342 26.4009H24.0463V40H36.6071C37.7722 40 38.8895 39.5485 39.7134 38.7447C40.5372 37.941 41 36.8509 41 35.7143V4.28571C41 3.14907 40.5372 2.05898 39.7134 1.25526C38.8895 0.451529 37.7722 0 36.6071 0Z" fill="#264653"/>
</svg>
