<svg width="60" height="43" viewBox="0 0 60 43" fill="none" xmlns="http://www.w3.org/2000/svg">
<path id="Vector" d="M58.7462 6.72804C58.0562 4.07974 56.0231 1.99401 53.4416 1.28619C48.7625 0 30 0 30 0C30 0 11.2376 0 6.55839 1.28619C3.97694 1.99413 1.94381 4.07974 1.25376 6.72804C0 11.5283 0 21.5434 0 21.5434C0 21.5434 0 31.5586 1.25376 36.3588C1.94381 39.0072 3.97694 41.006 6.55839 41.7138C11.2376 43 30 43 30 43C30 43 48.7624 43 53.4416 41.7138C56.0231 41.006 58.0562 39.0072 58.7462 36.3588C60 31.5586 60 21.5434 60 21.5434C60 21.5434 60 11.5283 58.7462 6.72804ZM23.8636 30.6365V12.4504L39.5453 21.5437L23.8636 30.6365Z" fill="#264653"/>
</svg>
